<?xml version="1.0" standalone="no"?><!DOCTYPE svg PUBLIC "-//W3C//DTD SVG 1.1//EN" "http://www.w3.org/Graphics/SVG/1.1/DTD/svg11.dtd"><svg t="1746791886670" class="icon" viewBox="0 0 1024 1024" version="1.1" xmlns="http://www.w3.org/2000/svg" p-id="4827" data-spm-anchor-id="a313x.search_index.0.i7.14873a81JUABzC" xmlns:xlink="http://www.w3.org/1999/xlink" width="64" height="64"><path d="M512 999.872a217.856 217.856 0 0 1-217.6-217.6A217.6 217.6 0 0 1 358.464 628.48L358.4 177.728c0-84.736 68.864-153.6 153.6-153.6s153.6 68.864 153.6 153.6l-0.064 450.752a217.6 217.6 0 0 1 64.064 153.792c0 119.936-97.6 217.6-217.6 217.6zM512 75.328c-56.448 0-102.4 45.952-102.4 102.4l0.064 473.216-8.512 7.616a166.144 166.144 0 0 0-55.552 123.648c0 91.776 74.624 166.4 166.4 166.4s166.4-74.624 166.4-166.4c0-47.04-20.224-92.096-55.552-123.648l-8.512-7.616 0.064-473.216c0-56.448-45.952-102.4-102.4-102.4z" p-id="4828" data-spm-anchor-id="a313x.search_index.0.i8.14873a81JUABzC" class="" fill="#1296db"></path><path d="M588.8 783.616a76.8 76.8 0 1 1-153.6 0 76.8 76.8 0 0 1 153.6 0z" p-id="4829" data-spm-anchor-id="a313x.search_index.0.i5.14873a81JUABzC" class="selected" fill="#d81e06"></path><path d="M512 886.016c-56.448 0-102.4-45.952-102.4-102.4s45.952-102.4 102.4-102.4c56.448 0 102.4 45.952 102.4 102.4s-45.952 102.4-102.4 102.4z m0-153.6a51.264 51.264 0 0 0 0 102.4 51.264 51.264 0 0 0 0-102.4z" p-id="4830" data-spm-anchor-id="a313x.search_index.0.i4.14873a81JUABzC" class="" fill="#d81e06"></path><path d="M473.6 348.416h76.8v435.2H473.6v-435.2zM878.976 154.304h-128a25.6 25.6 0 1 1 0-51.2h128a25.6 25.6 0 1 1 0 51.2zM878.976 243.904h-128a25.6 25.6 0 1 1 0-51.2h128a25.6 25.6 0 1 1 0 51.2zM878.976 333.504h-128a25.6 25.6 0 1 1 0-51.2h128a25.6 25.6 0 1 1 0 51.2z" p-id="4831" data-spm-anchor-id="a313x.search_index.0.i3.14873a81JUABzC" class="" fill="#d81e06"></path></svg>