<?xml version="1.0" standalone="no"?><!DOCTYPE svg PUBLIC "-//W3C//DTD SVG 1.1//EN" "http://www.w3.org/Graphics/SVG/1.1/DTD/svg11.dtd"><svg t="1746791735501" class="icon" viewBox="0 0 1024 1024" version="1.1" xmlns="http://www.w3.org/2000/svg" p-id="3681" id="mx_n_1746791735503" xmlns:xlink="http://www.w3.org/1999/xlink" width="64" height="64"><path d="M603.852 611.258l-9.722-33.072c-23.752-80.806-12.2-143.08 8.138-228.866l38.44-162.154-172.02-67.416V67.828h-153.88v51.924l-172.02 67.416 38.44 162.154c20.338 85.786 31.892 148.06 8.142 228.866l-9.724 33.072c-3.47 11.8-7.592 24.032-11.58 35.856-11.796 34.984-23.99 71.154-23.99 107.872v83.826H639.42v-83.826c0-36.718-12.194-72.888-23.99-107.872-3.986-11.83-8.108-24.058-11.578-35.858z m20.7 212.686H158.946v-68.958c0-34.278 11.8-69.278 23.21-103.12 4.034-11.964 8.204-24.336 11.754-36.416l9.724-33.072c24.786-84.326 12.95-148.384-7.938-236.484L160.232 196.3l169.446-66.404v-47.2h124.142v47.202l169.446 66.404-35.464 149.594c-20.888 88.1-32.724 152.158-7.936 236.484l9.722 33.072c3.55 12.082 7.72 24.452 11.754 36.416 11.41 33.842 23.21 68.84 23.21 103.12v68.956z" fill="#4A555F" p-id="3682"></path><path d="M572.944 620.344l-9.724-33.072c-25.798-87.766-13.396-156.394 7.702-245.378l31.988-134.938-166.436-65.226V100.042h-89.45v41.688l-166.438 65.226 31.988 134.938c21.098 88.986 33.5 157.614 7.702 245.378l-9.724 33.072c-12.86 43.74-34.26 89.04-34.26 134.642v51.606h430.91v-51.606c0.002-45.604-21.398-90.902-34.258-134.642z" fill="#71CCE0" p-id="3683"></path><path d="M441.512 823.944H349.76l-7.434 7.434v67.824h14.868v-60.39h76.884v60.39h14.868v-67.824zM338.438 0v82.696h106.62V0h-106.62z m91.752 67.828h-76.882V14.87h76.882v52.958zM115.846 951.436h579.318v14.87H115.846z" fill="#4A555F" p-id="3684"></path><path d="M635.572 893.738l-10.088 10.928 58.72 54.206-58.72 54.2 10.088 10.928 70.554-65.128zM185.528 904.666l-10.088-10.928-70.554 65.134L175.44 1024l10.088-10.928-58.72-54.2z" fill="#4A555F" p-id="3685"></path><path d="M376.34 853.904h40.294v45.3H376.34zM371.604 31.276h40.292v36.536h-40.292z" fill="#F58E6F" p-id="3686"></path><path d="M883.582 515.942c-29.438-145.034-59.88-295.008-3.8-441.552l3.862-10.092h-104.42l-1.828 4.778c-57.626 150.584-26.746 302.708 3.114 449.828 29.438 145.034 59.88 295.006 3.8 441.55l-3.862 10.092h104.42l1.828-4.778c57.626-150.58 26.75-302.706-3.114-449.826z m-8.974 439.734h-72.682c52.518-147.28 22.352-295.9-6.844-439.734-29.118-143.456-59.218-291.748-5.598-436.776h72.682c-52.518 147.284-22.352 295.904 6.844 439.732 29.12 143.462 59.22 291.754 5.598 436.778z" fill="#4A555F" p-id="3687"></path><path d="M852.008 522.352c-28.16-138.752-57.22-281.87-13.804-425.838h-36.47c-46.392 136.472-18.8 272.392 10.348 415.984 28.166 138.748 57.22 281.864 13.81 425.834h36.466c46.392-136.472 18.798-272.394-10.35-415.98z" fill="#FFD452" p-id="3688"></path><path d="M811.398 165.118h35.208v14.87h-35.208zM807.794 303.064h35.208v14.868h-35.208zM827.41 441.014h35.21v14.868h-35.21zM854.766 578.96h35.208v14.868h-35.208zM874.38 716.91h35.21v14.868H874.38zM870.776 854.856h35.208v14.868h-35.208z" fill="#4A555F" p-id="3689"></path></svg>