<?xml version="1.0" standalone="no"?><!DOCTYPE svg PUBLIC "-//W3C//DTD SVG 1.1//EN" "http://www.w3.org/Graphics/SVG/1.1/DTD/svg11.dtd"><svg t="1746791973522" class="icon" viewBox="0 0 1024 1024" version="1.1" xmlns="http://www.w3.org/2000/svg" p-id="6198" xmlns:xlink="http://www.w3.org/1999/xlink" width="64" height="64"><path d="M618.666667 498.773333a21.333333 21.333333 0 1 0-42.666667 0 64 64 0 0 1-64 64 21.333333 21.333333 0 1 0 0 42.666667 106.666667 106.666667 0 0 0 106.666667-106.666667z" fill="#1296db" p-id="6199" data-spm-anchor-id="a313x.search_index.0.i11.14873a81JUABzC" class="selected"></path><path d="M529.706667 145.493333l0.384 0.554667 1.450666 2.133333 5.504 8.106667a2289.92 2289.92 0 0 1 78.762667 125.738667c21.504 37.12 43.264 77.610667 59.733333 115.072 16.042667 36.565333 28.458667 73.258667 28.458667 101.674666a192 192 0 0 1-384 0c0-28.416 12.373333-65.109333 28.458667-101.674666 16.469333-37.461333 38.229333-77.952 59.733333-115.072a2289.92 2289.92 0 0 1 84.266667-133.802667l1.450666-2.133333 0.426667-0.597334 17.664-25.6 17.706667 25.6z m-26.453334 63.616a2244.437333 2244.437333 0 0 0-58.154666 94.336c-21.12 36.437333-42.026667 75.392-57.6 110.805334-15.914667 36.266667-24.832 65.792-24.832 84.48a149.333333 149.333333 0 1 0 298.666666 0c0-18.688-8.96-48.213333-24.874666-84.48-15.530667-35.413333-36.437333-74.368-57.6-110.805334A2244.437333 2244.437333 0 0 0 512 195.712l-8.789333 13.397333zM151.722667 574.293333l-0.128 0.256-0.426667 0.768-1.365333 2.773334a829.610667 829.610667 0 0 0-20.053334 42.581333c-5.461333 12.586667-11.093333 26.453333-15.36 39.509333-4.053333 12.373333-7.722667 26.197333-7.722666 37.674667 0 19.882667 6.016 38.698667 16.768 53.034667 10.752 14.336 27.221333 25.173333 47.232 25.173333s36.48-10.837333 47.232-25.173333c10.752-14.336 16.768-33.152 16.768-53.034667 0-11.52-3.669333-25.301333-7.722667-37.674667-4.266667-13.013333-9.898667-26.922667-15.36-39.509333a851.925333 851.925333 0 0 0-20.053333-42.581333l-1.408-2.773334-0.384-0.768-0.128-0.256L170.666667 537.728l-18.944 36.565333zM170.666667 633.685333l1.792 4.010667c5.162667 11.946667 10.24 24.533333 13.952 35.84 3.925333 11.861333 5.589333 20.138667 5.589333 24.32 0 11.52-3.541333 21.162667-8.234667 27.434667-4.693333 6.272-9.557333 8.106667-13.098666 8.106666-3.541333 0-8.405333-1.834667-13.098667-8.106666a46.165333 46.165333 0 0 1-8.234667-27.434667c0-4.181333 1.706667-12.458667 5.589334-24.32A433.109333 433.109333 0 0 1 170.666667 633.685333zM810.666667 589.226667l-17.621334 25.514666-0.213333 0.298667-0.768 1.109333-2.773333 4.096a1184.64 1184.64 0 0 0-39.722667 63.488c-10.88 18.688-21.973333 39.338667-30.421333 58.581334-8.106667 18.346667-15.146667 38.485333-15.146667 55.125333a106.666667 106.666667 0 0 0 213.333333 0c0-16.64-7.082667-36.778667-15.146666-55.125333-8.448-19.242667-19.541333-39.893333-30.378667-58.581334a1157.674667 1157.674667 0 0 0-42.538667-67.584l-0.768-1.109333-0.213333-0.298667L810.666667 589.226667z m-24.192 115.882666c8.533333-14.677333 17.066667-28.458667 24.192-39.594666 7.125333 11.136 15.701333 24.917333 24.192 39.594666 10.496 18.090667 20.736 37.162667 28.288 54.357334 7.936 18.048 11.52 31.018667 11.52 37.973333a64 64 0 0 1-128 0c0-6.954667 3.584-19.925333 11.52-37.973333 7.552-17.194667 17.792-36.266667 28.288-54.357334z" fill="#1296db" p-id="6200" data-spm-anchor-id="a313x.search_index.0.i10.14873a81JUABzC" class="selected"></path></svg>